# xmcd
#
# Track frame offsets: 
#        150
#        11399
#        25454
#        35909
#        47636
#        57401
#        69139
#        77678
#        89659
#        101392
#        114004
#        124321
#        138009
#        147560
#        159479
#        171283
#        182406
#        195796
#        206724
#
# Disc length: 2939 seconds
#
# Revision: 0
# Processed by: cddbd v1.5.2PL0 Copyright (c) Steve Scherf et al.
# Submitted via: ExactAudioCopy v0.95b3
#
DISCID=fb0b7913
DTITLE=The Beatles  - Beatles For Sale - Disc 2 - mono  FLAC
DYEAR=1900
DGENRE=
TTITLE0=I Feel Fine
TTITLE1=She's A Woman
TTITLE2=No Reply
TTITLE3=I'm A Loser
TTITLE4=Baby's In Black
TTITLE5=Rock And Roll Music
TTITLE6=I'll Follow The Sun
TTITLE7=Mr. Moonlight
TTITLE8=Kansas City - Hey, Hey, Hey, Hey
TTITLE9=Kansas City - Hey, Hey, Hey, Hey
TTITLE10=Words Of Love
TTITLE11=Honey Don't
TTITLE12=Every Little Thing
TTITLE13=I Don't Want To Spoil The Party
TTITLE14=What You're Doing
TTITLE15=Everybody's Trying To Be My Baby
TTITLE16=Leave My Kitten Alone
TTITLE17=I Feel Fine - US mono
TTITLE18=She's A Woman - US mono
EXTD=
EXTT0=
EXTT1=
EXTT2=
EXTT3=
EXTT4=
EXTT5=
EXTT6=
EXTT7=
EXTT8=
EXTT9=
EXTT10=
EXTT11=
EXTT12=
EXTT13=
EXTT14=
EXTT15=
EXTT16=
EXTT17=
EXTT18=
PLAYORDER=
